<?xml version="1.0" encoding="UTF-8" standalone="no"?>
<svg width="269mm" height="216mm" viewBox="0 0 269 216" version="1.1" id="svg5" xmlns="http://www.w3.org/2000/svg" xmlns:svg="http://www.w3.org/2000/svg">
<g id="checkers">
<rect width="25" height="25" x="9.5" y="8"></rect>
<rect width="25" height="25" x="59.5" y="8"></rect>
<rect width="25" height="25" x="109.5" y="8"></rect>
<rect width="25" height="25" x="159.5" y="8"></rect>
<rect width="25" height="25" x="209.5" y="8"></rect>
<rect width="25" height="25" x="34.5" y="33"></rect>
<rect width="25" height="25" x="84.5" y="33"></rect>
<rect width="25" height="25" x="134.5" y="33"></rect>
<rect width="25" height="25" x="184.5" y="33"></rect>
<rect width="25" height="25" x="234.5" y="33"></rect>
<rect width="25" height="25" x="9.5" y="58"></rect>
<rect width="25" height="25" x="59.5" y="58"></rect>
<rect width="25" height="25" x="109.5" y="58"></rect>
<rect width="25" height="25" x="159.5" y="58"></rect>
<rect width="25" height="25" x="209.5" y="58"></rect>
<rect width="25" height="25" x="34.5" y="83"></rect>
<rect width="25" height="25" x="84.5" y="83"></rect>
<rect width="25" height="25" x="134.5" y="83"></rect>
<rect width="25" height="25" x="184.5" y="83"></rect>
<rect width="25" height="25" x="234.5" y="83"></rect>
<rect width="25" height="25" x="9.5" y="108"></rect>
<rect width="25" height="25" x="59.5" y="108"></rect>
<rect width="25" height="25" x="109.5" y="108"></rect>
<rect width="25" height="25" x="159.5" y="108"></rect>
<rect width="25" height="25" x="209.5" y="108"></rect>
<rect width="25" height="25" x="34.5" y="133"></rect>
<rect width="25" height="25" x="84.5" y="133"></rect>
<rect width="25" height="25" x="134.5" y="133"></rect>
<rect width="25" height="25" x="184.5" y="133"></rect>
<rect width="25" height="25" x="234.5" y="133"></rect>
<rect width="25" height="25" x="9.5" y="158"></rect>
<rect width="25" height="25" x="59.5" y="158"></rect>
<rect width="25" height="25" x="109.5" y="158"></rect>
<rect width="25" height="25" x="159.5" y="158"></rect>
<rect width="25" height="25" x="209.5" y="158"></rect>
<rect width="25" height="25" x="34.5" y="183"></rect>
<rect width="25" height="25" x="84.5" y="183"></rect>
<rect width="25" height="25" x="134.5" y="183"></rect>
<rect width="25" height="25" x="184.5" y="183"></rect>
<rect width="25" height="25" x="234.5" y="183"></rect>

</g>
</svg>
